<svg width="210" height="29" viewBox="0 0 210 29" fill="none" xmlns="http://www.w3.org/2000/svg">
<path d="M6.06759 7.66007H0.503999C0.2268 7.66007 0 7.43608 0 7.15608V4.88248C0 4.60528 0.2268 4.37848 0.503999 4.37848H15.2404C15.5176 4.37848 15.7444 4.60248 15.7444 4.88248V7.15608C15.7444 7.43328 15.5204 7.66007 15.2404 7.66007H9.67399V23.0125C9.67399 23.2897 9.44999 23.5165 9.16999 23.5165H6.56879C6.29159 23.5165 6.06479 23.2925 6.06479 23.0125V7.66007H6.06759Z" fill="white"/>
<path d="M38.4134 4.88248V20.1789H47.7514C48.0286 20.1789 48.2554 20.4029 48.2554 20.6829V23.0125C48.2554 23.2897 48.0314 23.5165 47.7514 23.5165H35.3082C35.031 23.5165 34.8042 23.2925 34.8042 23.0125V4.88248C34.8042 4.60528 35.0282 4.37848 35.3082 4.37848H37.9094C38.1866 4.37848 38.4134 4.60248 38.4134 4.88248Z" fill="white"/>
<path d="M64.5456 23.5137H51.2288C50.9516 23.5137 50.7248 23.2897 50.7248 23.0097V4.88248C50.7248 4.60528 50.9488 4.37848 51.2288 4.37848H64.5456C64.8228 4.37848 65.0496 4.60248 65.0496 4.88248V7.37448C65.0496 7.65167 64.8228 7.87847 64.5456 7.87847H54.306V12.2801H64.162C64.4392 12.2801 64.666 12.5041 64.666 12.7841V15.1389C64.666 15.4161 64.442 15.6429 64.162 15.6429H54.306V19.9605H64.5456C64.8228 19.9605 65.0496 20.1845 65.0496 20.4645V23.0125C65.0496 23.2897 64.8228 23.5165 64.5456 23.5165" fill="white"/>
<path d="M209.496 23.5137H196.179C195.902 23.5137 195.675 23.2897 195.675 23.0097V4.88248C195.675 4.60528 195.899 4.37848 196.179 4.37848H209.496C209.773 4.37848 210 4.60248 210 4.88248V7.37448C210 7.65167 209.773 7.87847 209.496 7.87847H199.257V12.2801H209.113C209.39 12.2801 209.617 12.5041 209.617 12.7841V15.1389C209.617 15.4161 209.393 15.6429 209.113 15.6429H199.257V19.9605H209.496C209.773 19.9605 210 20.1845 210 20.4645V23.0125C210 23.2897 209.773 23.5165 209.496 23.5165" fill="white"/>
<path d="M80.6176 17.2557V4.88248C80.6176 4.60528 80.8416 4.37848 81.1216 4.37848H83.7228C84 4.37848 84.2268 4.60248 84.2268 4.88248V23.0097C84.2268 23.2869 84.0028 23.5137 83.7228 23.5137H81.5444C81.3904 23.5137 81.2476 23.4437 81.1524 23.3261L71.134 10.7765V23.0125C71.134 23.2897 70.91 23.5165 70.63 23.5165H68.0288C67.7516 23.5165 67.5248 23.2925 67.5248 23.0125V4.88248C67.5248 4.60528 67.7488 4.37848 68.0288 4.37848H70.2072C70.3612 4.37848 70.5068 4.44848 70.602 4.56888L80.6204 17.2529L80.6176 17.2557Z" fill="white"/>
<path d="M92.7669 7.66007H87.2005C86.9233 7.66007 86.6965 7.43608 86.6965 7.15608V4.88248C86.6965 4.60528 86.9233 4.37848 87.2005 4.37848H101.94C102.217 4.37848 102.444 4.60248 102.444 4.88248V7.15608C102.444 7.43328 102.22 7.66007 101.94 7.66007H96.3733V23.0125C96.3733 23.2897 96.1493 23.5165 95.8693 23.5165H93.2681C92.9909 23.5165 92.7641 23.2925 92.7641 23.0125V7.66007H92.7669Z" fill="white"/>
<path d="M122.814 8.79969C122.598 8.91169 122.34 8.84729 122.189 8.66249C121.397 7.70209 119.753 6.86769 117.891 6.86769C115.212 6.86769 113.929 7.98769 113.929 9.41009C113.929 11.0789 115.898 11.5409 118.194 11.8153C122.184 12.3081 125.902 13.3469 125.902 17.9109C125.902 22.1753 122.13 24.0065 117.866 24.0065C114.131 24.0065 111.219 22.9089 109.726 19.7561C109.609 19.5097 109.707 19.2129 109.948 19.0869L112.073 17.9865C112.316 17.8605 112.613 17.9557 112.745 18.1965C113.711 19.9857 115.769 20.7809 117.919 20.7809C120.187 20.7809 122.321 19.9885 122.321 17.9109C122.321 16.1077 120.436 15.3685 117.891 15.0941C113.982 14.6293 110.373 13.5905 110.373 9.29809C110.373 5.3613 114.254 3.7485 117.782 3.7233C120.596 3.7233 123.505 4.4793 125.04 7.04689C125.191 7.29889 125.098 7.62649 124.838 7.75809L122.814 8.79969Z" fill="white"/>
<path d="M144.802 20.7388C145.009 20.9488 144.99 21.2848 144.769 21.478C142.862 23.1636 140.473 23.9504 137.895 23.9504C130.788 23.9504 127.781 19.0588 127.753 14.0832C127.725 9.07961 130.979 3.99762 137.895 3.99762C140.317 3.99762 142.621 4.85442 144.517 6.54562C144.738 6.74442 144.752 7.08322 144.539 7.29042L142.851 8.92001C142.669 9.09641 142.38 9.11041 142.184 8.94801C140.969 7.92321 139.421 7.44162 137.895 7.44162C133.275 7.44162 131.278 10.8856 131.306 14.0832C131.334 17.2528 133.165 20.5624 137.895 20.5624C139.418 20.5624 141.126 19.9912 142.369 18.93C142.568 18.762 142.862 18.7788 143.044 18.9636L144.799 20.7388H144.802Z" fill="white"/>
<path d="M170.612 24.0512C165.11 29.5532 156.189 29.5532 150.687 24.0512C145.185 18.5492 145.185 9.62842 150.687 4.12643C156.189 -1.37556 165.11 -1.37556 170.612 4.12643C176.114 9.62842 176.114 18.5492 170.612 24.0512ZM169.324 7.80002L170.211 6.91242C170.396 6.72762 170.407 6.43642 170.242 6.23202C169.985 5.91842 169.713 5.61042 169.419 5.31922C169.125 5.02522 168.82 4.75082 168.506 4.49603C168.305 4.33083 168.011 4.34203 167.826 4.52682L166.938 5.41442C167.389 5.74202 167.82 6.10602 168.226 6.51202C168.632 6.91802 168.999 7.34922 169.327 7.80002L161.8 15.3264C161.181 15.9452 160.204 15.9816 159.541 15.4412C159.496 15.4048 159.454 15.3656 159.412 15.3264C159.37 15.2844 159.333 15.2424 159.297 15.1976C158.757 14.534 158.796 13.5568 159.412 12.938L166.938 5.41162C162.579 2.24204 156.368 2.76844 152.622 6.99082C149.069 10.9948 149.057 17.1352 152.594 21.1532C156.721 25.8432 163.878 26.014 168.226 21.6656C172.003 17.8884 172.37 11.9916 169.327 7.80002" fill="#60C4B0"/>
<path d="M193.626 22.6765L188.365 16.7349C191.999 15.9957 193.203 13.3441 193.203 10.7205C193.203 7.41372 190.826 4.40652 186.315 4.37852C183.451 4.37852 180.583 4.35332 177.716 4.35052C177.439 4.35052 177.212 4.57732 177.212 4.85452V23.0097C177.212 23.2869 177.439 23.5137 177.716 23.5137H180.317C180.595 23.5137 180.821 23.2897 180.821 23.0097V17.1157H184.484L189.882 23.3373C189.977 23.4465 190.117 23.5109 190.263 23.5109H193.251C193.685 23.5109 193.914 22.9985 193.626 22.6737M180.819 13.8621V7.74132H186.312C188.58 7.74132 189.594 9.27292 189.594 10.8017C189.594 12.3305 188.608 13.8621 186.312 13.8621H180.819Z" fill="white"/>
<path d="M32.2953 22.8305L25.3765 4.70328C25.3009 4.50728 25.1161 4.37848 24.9061 4.37848H21.7365C21.5293 4.37848 21.3417 4.50728 21.2661 4.70328L14.3474 22.8305C14.2214 23.1609 14.465 23.5137 14.8178 23.5137H17.6038C17.811 23.5137 17.9986 23.3849 18.0742 23.1889L23.3241 9.43807L28.5741 23.1889C28.6497 23.3849 28.8345 23.5137 29.0445 23.5137H31.8305C32.1833 23.5137 32.4269 23.1609 32.3009 22.8305" fill="white"/>
</svg>
