<svg width="29" height="29" viewBox="0 0 29 29" fill="none" xmlns="http://www.w3.org/2000/svg">
<path d="M24.6118 24.0512C19.1098 29.5532 10.189 29.5532 4.68704 24.0512C-0.814952 18.5492 -0.814952 9.62842 4.68704 4.12643C10.189 -1.37556 19.1098 -1.37556 24.6118 4.12643C30.1138 9.62842 30.1138 18.5492 24.6118 24.0512ZM23.3238 7.80002L24.2114 6.91242C24.3962 6.72762 24.4074 6.43642 24.2422 6.23202C23.9846 5.91842 23.713 5.61042 23.419 5.31922C23.125 5.02522 22.8198 4.75082 22.5062 4.49603C22.3046 4.33083 22.0106 4.34203 21.8258 4.52682L20.9382 5.41442C21.389 5.74202 21.8202 6.10602 22.2262 6.51202C22.6322 6.91802 22.999 7.34922 23.3266 7.80002L15.8002 15.3264C15.1814 15.9452 14.2042 15.9816 13.5406 15.4412C13.4958 15.4048 13.4538 15.3656 13.4118 15.3264C13.3698 15.2844 13.3334 15.2424 13.297 15.1976C12.7566 14.534 12.7958 13.5568 13.4118 12.938L20.9382 5.41162C16.5786 2.24204 10.3682 2.76844 6.62185 6.99082C3.06865 10.9948 3.05744 17.1352 6.59384 21.1532C10.721 25.8432 17.8778 26.014 22.2262 21.6656C26.0034 17.8884 26.3702 11.9916 23.3266 7.80002" fill="#60C4B0"/>
</svg>
