<svg width="15" height="12" viewBox="0 0 15 12" fill="none" xmlns="http://www.w3.org/2000/svg">
<path d="M6.3625 11.275C6.5375 11.075 6.6215 10.8333 6.6145 10.55C6.6075 10.2667 6.51621 10.025 6.34062 9.825L3.86875 7H13.625C13.8729 7 14.0809 6.904 14.2489 6.712C14.4169 6.52 14.5006 6.28267 14.5 6C14.5 5.71667 14.416 5.479 14.248 5.287C14.08 5.095 13.8723 4.99934 13.625 5H3.86875L6.3625 2.15C6.5375 1.95 6.625 1.71234 6.625 1.437C6.625 1.16167 6.5375 0.924336 6.3625 0.725003C6.1875 0.525003 5.97954 0.425003 5.73862 0.425003C5.49771 0.425003 5.29004 0.525003 5.11562 0.725003L1.1125 5.3C1.025 5.4 0.962872 5.50834 0.926121 5.625C0.889371 5.74167 0.871287 5.86667 0.871871 6C0.871871 6.13334 0.890247 6.25834 0.926997 6.375C0.963747 6.49167 1.02558 6.6 1.1125 6.7L5.1375 11.3C5.29791 11.4833 5.49829 11.575 5.73862 11.575C5.97896 11.575 6.18691 11.475 6.3625 11.275Z" fill="#038477"/>
</svg>
